<mxfile host="app.diagrams.net" modified="2021-09-07T18:22:03.691Z" agent="5.0 (Macintosh; Intel Mac OS X 10_15_7) AppleWebKit/537.36 (KHTML, like Gecko) Chrome/93.0.4577.63 Safari/537.36" etag="SQZF_vhtaTbRx25Tpqq3" version="15.1.0" type="github">
  <diagram id="C5RBs43oDa-KdzZeNtuy" name="Page-1">
    <mxGraphModel dx="780" dy="794" grid="1" gridSize="10" guides="1" tooltips="1" connect="1" arrows="1" fold="1" page="1" pageScale="1" pageWidth="1169" pageHeight="827" math="0" shadow="0">
      <root>
        <mxCell id="WIyWlLk6GJQsqaUBKTNV-0" />
        <mxCell id="WIyWlLk6GJQsqaUBKTNV-1" parent="WIyWlLk6GJQsqaUBKTNV-0" />
        <mxCell id="rQ16ahpxzYDLqlnlEEam-0" value="Roles" style="swimlane;fontStyle=1;align=center;verticalAlign=top;childLayout=stackLayout;horizontal=1;startSize=26;horizontalStack=0;resizeParent=1;resizeParentMax=0;resizeLast=0;collapsible=1;marginBottom=0;" vertex="1" parent="WIyWlLk6GJQsqaUBKTNV-1">
          <mxGeometry x="230" y="40" width="160" height="170" as="geometry" />
        </mxCell>
        <mxCell id="rQ16ahpxzYDLqlnlEEam-1" value="+ Role.bearer: address" style="text;strokeColor=none;fillColor=none;align=left;verticalAlign=top;spacingLeft=4;spacingRight=4;overflow=hidden;rotatable=0;points=[[0,0.5],[1,0.5]];portConstraint=eastwest;" vertex="1" parent="rQ16ahpxzYDLqlnlEEam-0">
          <mxGeometry y="26" width="160" height="26" as="geometry" />
        </mxCell>
        <mxCell id="rQ16ahpxzYDLqlnlEEam-2" value="" style="line;strokeWidth=1;fillColor=none;align=left;verticalAlign=middle;spacingTop=-1;spacingLeft=3;spacingRight=3;rotatable=0;labelPosition=right;points=[];portConstraint=eastwest;" vertex="1" parent="rQ16ahpxzYDLqlnlEEam-0">
          <mxGeometry y="52" width="160" height="8" as="geometry" />
        </mxCell>
        <mxCell id="rQ16ahpxzYDLqlnlEEam-3" value="+ add(Role, address)&#xa;+ remove(Role, address)&#xa;+ has(Role, address)" style="text;strokeColor=none;fillColor=none;align=left;verticalAlign=top;spacingLeft=4;spacingRight=4;overflow=hidden;rotatable=0;points=[[0,0.5],[1,0.5]];portConstraint=eastwest;" vertex="1" parent="rQ16ahpxzYDLqlnlEEam-0">
          <mxGeometry y="60" width="160" height="110" as="geometry" />
        </mxCell>
        <mxCell id="rQ16ahpxzYDLqlnlEEam-8" style="edgeStyle=orthogonalEdgeStyle;rounded=0;orthogonalLoop=1;jettySize=auto;html=1;" edge="1" parent="WIyWlLk6GJQsqaUBKTNV-1" source="rQ16ahpxzYDLqlnlEEam-4">
          <mxGeometry relative="1" as="geometry">
            <mxPoint x="310" y="211" as="targetPoint" />
            <Array as="points">
              <mxPoint x="110" y="270" />
              <mxPoint x="310" y="270" />
              <mxPoint x="310" y="211" />
            </Array>
          </mxGeometry>
        </mxCell>
        <mxCell id="rQ16ahpxzYDLqlnlEEam-4" value="Farmer" style="swimlane;fontStyle=1;align=center;verticalAlign=top;childLayout=stackLayout;horizontal=1;startSize=26;horizontalStack=0;resizeParent=1;resizeParentMax=0;resizeLast=0;collapsible=1;marginBottom=0;" vertex="1" parent="WIyWlLk6GJQsqaUBKTNV-1">
          <mxGeometry x="30" y="300" width="170" height="160" as="geometry" />
        </mxCell>
        <mxCell id="rQ16ahpxzYDLqlnlEEam-5" value="+ farmers(Roles.Role)" style="text;strokeColor=none;fillColor=none;align=left;verticalAlign=top;spacingLeft=4;spacingRight=4;overflow=hidden;rotatable=0;points=[[0,0.5],[1,0.5]];portConstraint=eastwest;" vertex="1" parent="rQ16ahpxzYDLqlnlEEam-4">
          <mxGeometry y="26" width="170" height="26" as="geometry" />
        </mxCell>
        <mxCell id="rQ16ahpxzYDLqlnlEEam-6" value="" style="line;strokeWidth=1;fillColor=none;align=left;verticalAlign=middle;spacingTop=-1;spacingLeft=3;spacingRight=3;rotatable=0;labelPosition=right;points=[];portConstraint=eastwest;" vertex="1" parent="rQ16ahpxzYDLqlnlEEam-4">
          <mxGeometry y="52" width="170" height="8" as="geometry" />
        </mxCell>
        <mxCell id="rQ16ahpxzYDLqlnlEEam-7" value="+ isFarmer(address): bool&#xa;+ addFarmer(address)&#xa;+ renounceFarmer()&#xa;+ _addFarmer(address)&#xa;+ _removeFarmer(address)&#xa;" style="text;strokeColor=none;fillColor=none;align=left;verticalAlign=top;spacingLeft=4;spacingRight=4;overflow=hidden;rotatable=0;points=[[0,0.5],[1,0.5]];portConstraint=eastwest;" vertex="1" parent="rQ16ahpxzYDLqlnlEEam-4">
          <mxGeometry y="60" width="170" height="100" as="geometry" />
        </mxCell>
        <mxCell id="rQ16ahpxzYDLqlnlEEam-14" style="edgeStyle=orthogonalEdgeStyle;rounded=0;orthogonalLoop=1;jettySize=auto;html=1;entryX=0.502;entryY=1.001;entryDx=0;entryDy=0;entryPerimeter=0;" edge="1" parent="WIyWlLk6GJQsqaUBKTNV-1" source="rQ16ahpxzYDLqlnlEEam-9" target="rQ16ahpxzYDLqlnlEEam-3">
          <mxGeometry relative="1" as="geometry">
            <mxPoint x="320" y="210" as="targetPoint" />
            <Array as="points">
              <mxPoint x="305" y="560" />
              <mxPoint x="305" y="270" />
              <mxPoint x="310" y="270" />
              <mxPoint x="310" y="210" />
            </Array>
          </mxGeometry>
        </mxCell>
        <mxCell id="rQ16ahpxzYDLqlnlEEam-9" value="Distributor" style="swimlane;fontStyle=1;align=center;verticalAlign=top;childLayout=stackLayout;horizontal=1;startSize=26;horizontalStack=0;resizeParent=1;resizeParentMax=0;resizeLast=0;collapsible=1;marginBottom=0;" vertex="1" parent="WIyWlLk6GJQsqaUBKTNV-1">
          <mxGeometry x="30" y="480" width="170" height="160" as="geometry" />
        </mxCell>
        <mxCell id="rQ16ahpxzYDLqlnlEEam-10" value="+ distributors(Roles.Role)" style="text;strokeColor=none;fillColor=none;align=left;verticalAlign=top;spacingLeft=4;spacingRight=4;overflow=hidden;rotatable=0;points=[[0,0.5],[1,0.5]];portConstraint=eastwest;" vertex="1" parent="rQ16ahpxzYDLqlnlEEam-9">
          <mxGeometry y="26" width="170" height="26" as="geometry" />
        </mxCell>
        <mxCell id="rQ16ahpxzYDLqlnlEEam-11" value="" style="line;strokeWidth=1;fillColor=none;align=left;verticalAlign=middle;spacingTop=-1;spacingLeft=3;spacingRight=3;rotatable=0;labelPosition=right;points=[];portConstraint=eastwest;" vertex="1" parent="rQ16ahpxzYDLqlnlEEam-9">
          <mxGeometry y="52" width="170" height="8" as="geometry" />
        </mxCell>
        <mxCell id="rQ16ahpxzYDLqlnlEEam-12" value="+ isDistributor(address): bool&#xa;+ addDistributor(address)&#xa;+ renounceDistributor()&#xa;+ _addDistributor(address)&#xa;+ _removeDistributor(address)&#xa;" style="text;strokeColor=none;fillColor=none;align=left;verticalAlign=top;spacingLeft=4;spacingRight=4;overflow=hidden;rotatable=0;points=[[0,0.5],[1,0.5]];portConstraint=eastwest;" vertex="1" parent="rQ16ahpxzYDLqlnlEEam-9">
          <mxGeometry y="60" width="170" height="100" as="geometry" />
        </mxCell>
        <mxCell id="rQ16ahpxzYDLqlnlEEam-19" style="edgeStyle=orthogonalEdgeStyle;rounded=0;orthogonalLoop=1;jettySize=auto;html=1;" edge="1" parent="WIyWlLk6GJQsqaUBKTNV-1" source="rQ16ahpxzYDLqlnlEEam-15">
          <mxGeometry relative="1" as="geometry">
            <mxPoint x="310" y="210" as="targetPoint" />
            <Array as="points">
              <mxPoint x="405" y="270" />
              <mxPoint x="310" y="270" />
              <mxPoint x="310" y="210" />
            </Array>
          </mxGeometry>
        </mxCell>
        <mxCell id="rQ16ahpxzYDLqlnlEEam-15" value="Retailer" style="swimlane;fontStyle=1;align=center;verticalAlign=top;childLayout=stackLayout;horizontal=1;startSize=26;horizontalStack=0;resizeParent=1;resizeParentMax=0;resizeLast=0;collapsible=1;marginBottom=0;" vertex="1" parent="WIyWlLk6GJQsqaUBKTNV-1">
          <mxGeometry x="320" y="300" width="170" height="160" as="geometry" />
        </mxCell>
        <mxCell id="rQ16ahpxzYDLqlnlEEam-16" value="+ retailer(Roles.Role)" style="text;strokeColor=none;fillColor=none;align=left;verticalAlign=top;spacingLeft=4;spacingRight=4;overflow=hidden;rotatable=0;points=[[0,0.5],[1,0.5]];portConstraint=eastwest;" vertex="1" parent="rQ16ahpxzYDLqlnlEEam-15">
          <mxGeometry y="26" width="170" height="26" as="geometry" />
        </mxCell>
        <mxCell id="rQ16ahpxzYDLqlnlEEam-17" value="" style="line;strokeWidth=1;fillColor=none;align=left;verticalAlign=middle;spacingTop=-1;spacingLeft=3;spacingRight=3;rotatable=0;labelPosition=right;points=[];portConstraint=eastwest;" vertex="1" parent="rQ16ahpxzYDLqlnlEEam-15">
          <mxGeometry y="52" width="170" height="8" as="geometry" />
        </mxCell>
        <mxCell id="rQ16ahpxzYDLqlnlEEam-18" value="+ isRetailer(address): bool&#xa;+ addRetailer(address)&#xa;+ renounceRetailer()&#xa;+ _addRetailer(address)&#xa;+ _removeRetailer(address)&#xa;" style="text;strokeColor=none;fillColor=none;align=left;verticalAlign=top;spacingLeft=4;spacingRight=4;overflow=hidden;rotatable=0;points=[[0,0.5],[1,0.5]];portConstraint=eastwest;" vertex="1" parent="rQ16ahpxzYDLqlnlEEam-15">
          <mxGeometry y="60" width="170" height="100" as="geometry" />
        </mxCell>
        <mxCell id="rQ16ahpxzYDLqlnlEEam-24" style="edgeStyle=orthogonalEdgeStyle;rounded=0;orthogonalLoop=1;jettySize=auto;html=1;entryX=0.5;entryY=1;entryDx=0;entryDy=0;entryPerimeter=0;" edge="1" parent="WIyWlLk6GJQsqaUBKTNV-1" source="rQ16ahpxzYDLqlnlEEam-20" target="rQ16ahpxzYDLqlnlEEam-3">
          <mxGeometry relative="1" as="geometry">
            <mxPoint x="319.5238095238095" y="210" as="targetPoint" />
            <Array as="points">
              <mxPoint x="520" y="570" />
              <mxPoint x="520" y="270" />
              <mxPoint x="310" y="270" />
            </Array>
          </mxGeometry>
        </mxCell>
        <mxCell id="rQ16ahpxzYDLqlnlEEam-20" value="Consumer" style="swimlane;fontStyle=1;align=center;verticalAlign=top;childLayout=stackLayout;horizontal=1;startSize=26;horizontalStack=0;resizeParent=1;resizeParentMax=0;resizeLast=0;collapsible=1;marginBottom=0;" vertex="1" parent="WIyWlLk6GJQsqaUBKTNV-1">
          <mxGeometry x="320" y="490" width="170" height="160" as="geometry" />
        </mxCell>
        <mxCell id="rQ16ahpxzYDLqlnlEEam-21" value="+ consumer(Roles.Role)" style="text;strokeColor=none;fillColor=none;align=left;verticalAlign=top;spacingLeft=4;spacingRight=4;overflow=hidden;rotatable=0;points=[[0,0.5],[1,0.5]];portConstraint=eastwest;" vertex="1" parent="rQ16ahpxzYDLqlnlEEam-20">
          <mxGeometry y="26" width="170" height="26" as="geometry" />
        </mxCell>
        <mxCell id="rQ16ahpxzYDLqlnlEEam-22" value="" style="line;strokeWidth=1;fillColor=none;align=left;verticalAlign=middle;spacingTop=-1;spacingLeft=3;spacingRight=3;rotatable=0;labelPosition=right;points=[];portConstraint=eastwest;" vertex="1" parent="rQ16ahpxzYDLqlnlEEam-20">
          <mxGeometry y="52" width="170" height="8" as="geometry" />
        </mxCell>
        <mxCell id="rQ16ahpxzYDLqlnlEEam-23" value="+ isConsumer(address): bool&#xa;+ addConsumer(address)&#xa;+ renounceConsumer()&#xa;+ _addConsumer(address)&#xa;+ _removeConsumer(address)&#xa;" style="text;strokeColor=none;fillColor=none;align=left;verticalAlign=top;spacingLeft=4;spacingRight=4;overflow=hidden;rotatable=0;points=[[0,0.5],[1,0.5]];portConstraint=eastwest;" vertex="1" parent="rQ16ahpxzYDLqlnlEEam-20">
          <mxGeometry y="60" width="170" height="100" as="geometry" />
        </mxCell>
        <mxCell id="rQ16ahpxzYDLqlnlEEam-44" style="edgeStyle=orthogonalEdgeStyle;rounded=0;orthogonalLoop=1;jettySize=auto;html=1;" edge="1" parent="WIyWlLk6GJQsqaUBKTNV-1" source="rQ16ahpxzYDLqlnlEEam-29">
          <mxGeometry relative="1" as="geometry">
            <mxPoint x="400" y="159" as="targetPoint" />
          </mxGeometry>
        </mxCell>
        <mxCell id="rQ16ahpxzYDLqlnlEEam-29" value="SupplyChain" style="swimlane;fontStyle=1;align=center;verticalAlign=top;childLayout=stackLayout;horizontal=1;startSize=26;horizontalStack=0;resizeParent=1;resizeParentMax=0;resizeLast=0;collapsible=1;marginBottom=0;" vertex="1" parent="WIyWlLk6GJQsqaUBKTNV-1">
          <mxGeometry x="560" y="40" width="235" height="238" as="geometry" />
        </mxCell>
        <mxCell id="rQ16ahpxzYDLqlnlEEam-30" value="+ items: mapping(uint =&gt; Item)&#xa;+ itemsHistory:mapping(uint =&gt; string[])&#xa;" style="text;strokeColor=none;fillColor=none;align=left;verticalAlign=top;spacingLeft=4;spacingRight=4;overflow=hidden;rotatable=0;points=[[0,0.5],[1,0.5]];portConstraint=eastwest;" vertex="1" parent="rQ16ahpxzYDLqlnlEEam-29">
          <mxGeometry y="26" width="235" height="44" as="geometry" />
        </mxCell>
        <mxCell id="rQ16ahpxzYDLqlnlEEam-31" value="" style="line;strokeWidth=1;fillColor=none;align=left;verticalAlign=middle;spacingTop=-1;spacingLeft=3;spacingRight=3;rotatable=0;labelPosition=right;points=[];portConstraint=eastwest;" vertex="1" parent="rQ16ahpxzYDLqlnlEEam-29">
          <mxGeometry y="70" width="235" height="8" as="geometry" />
        </mxCell>
        <mxCell id="rQ16ahpxzYDLqlnlEEam-32" value="+ harvestItem&#xa;+ processItem&#xa;+ packItem&#xa;+ sellItem&#xa;+ buyItem&#xa;+ shipItem&#xa;+ receiveItem&#xa;+ purchaseItem&#xa;+ fetchItemBufferOne(uint256)&#xa;+ fetItemBufferTwo(uint256)" style="text;strokeColor=none;fillColor=none;align=left;verticalAlign=top;spacingLeft=4;spacingRight=4;overflow=hidden;rotatable=0;points=[[0,0.5],[1,0.5]];portConstraint=eastwest;" vertex="1" parent="rQ16ahpxzYDLqlnlEEam-29">
          <mxGeometry y="78" width="235" height="160" as="geometry" />
        </mxCell>
        <mxCell id="rQ16ahpxzYDLqlnlEEam-46" style="edgeStyle=orthogonalEdgeStyle;rounded=0;orthogonalLoop=1;jettySize=auto;html=1;entryX=1.005;entryY=0.261;entryDx=0;entryDy=0;entryPerimeter=0;" edge="1" parent="WIyWlLk6GJQsqaUBKTNV-1" source="rQ16ahpxzYDLqlnlEEam-40" target="rQ16ahpxzYDLqlnlEEam-32">
          <mxGeometry relative="1" as="geometry" />
        </mxCell>
        <mxCell id="rQ16ahpxzYDLqlnlEEam-40" value="Ownable" style="swimlane;fontStyle=1;align=center;verticalAlign=top;childLayout=stackLayout;horizontal=1;startSize=26;horizontalStack=0;resizeParent=1;resizeParentMax=0;resizeLast=0;collapsible=1;marginBottom=0;html=1;direction=east;" vertex="1" parent="WIyWlLk6GJQsqaUBKTNV-1">
          <mxGeometry x="910" y="84" width="200" height="150" as="geometry" />
        </mxCell>
        <mxCell id="rQ16ahpxzYDLqlnlEEam-41" value="+ origOwner:address" style="text;strokeColor=none;fillColor=none;align=left;verticalAlign=top;spacingLeft=4;spacingRight=4;overflow=hidden;rotatable=0;points=[[0,0.5],[1,0.5]];portConstraint=eastwest;" vertex="1" parent="rQ16ahpxzYDLqlnlEEam-40">
          <mxGeometry y="26" width="200" height="26" as="geometry" />
        </mxCell>
        <mxCell id="rQ16ahpxzYDLqlnlEEam-42" value="" style="line;strokeWidth=1;fillColor=none;align=left;verticalAlign=middle;spacingTop=-1;spacingLeft=3;spacingRight=3;rotatable=0;labelPosition=right;points=[];portConstraint=eastwest;" vertex="1" parent="rQ16ahpxzYDLqlnlEEam-40">
          <mxGeometry y="52" width="200" height="8" as="geometry" />
        </mxCell>
        <mxCell id="rQ16ahpxzYDLqlnlEEam-43" value="+ owner() : address&#xa;+ isOwner(): bool&#xa;+ renounceOwnership()&#xa;+ transferOwnership()&#xa;+ _transferOwnership(address)" style="text;strokeColor=none;fillColor=none;align=left;verticalAlign=top;spacingLeft=4;spacingRight=4;overflow=hidden;rotatable=0;points=[[0,0.5],[1,0.5]];portConstraint=eastwest;" vertex="1" parent="rQ16ahpxzYDLqlnlEEam-40">
          <mxGeometry y="60" width="200" height="90" as="geometry" />
        </mxCell>
      </root>
    </mxGraphModel>
  </diagram>
</mxfile>
